<svg width="83" height="82" viewBox="0 0 83 82" fill="none" xmlns="http://www.w3.org/2000/svg">
<path d="M67.4375 51.25H51.875V46.125H67.4375V51.25Z" fill="black"/>
<path d="M77.8125 71.75H62.25V66.625H77.8125V71.75Z" fill="black"/>
<path d="M72.625 61.5H57.0625V56.375H72.625V61.5Z" fill="black"/>
<path d="M44.102 51.25C44.0838 49.0878 43.5 46.967 42.4075 45.0934C41.315 43.2197 39.7508 41.657 37.8667 40.5567L57.063 7.6875L52.5758 5.125L32.923 38.7604C30.511 38.2281 28.0025 38.3017 25.6268 38.9745C23.2511 39.6473 21.0841 40.8979 19.3239 42.6118C9.61294 51.865 10.3651 73.4976 10.4014 74.415C10.4283 75.0767 10.7133 75.7024 11.1969 76.1611C11.6804 76.6197 12.3249 76.8755 12.9952 76.875H51.8781C52.4225 76.875 52.9531 76.7058 53.3947 76.3913C53.8363 76.0768 54.1666 75.6331 54.3387 75.1228C54.5109 74.6126 54.5162 74.0618 54.3539 73.5484C54.1915 73.0351 53.8699 72.5852 53.4343 72.2625C44.2525 65.4565 44.102 51.3884 44.102 51.25ZM30.9439 43.5548C33.0199 43.5773 35.0072 44.3898 36.4922 45.8231C37.9773 47.2563 38.8458 49.2001 38.9171 51.25C38.9171 51.3474 38.9223 51.783 38.9612 52.4518L23.6581 45.7278C24.6661 44.9066 25.8294 44.2916 27.0802 43.9185C28.331 43.5455 29.6443 43.4218 30.9439 43.5548ZM40.0739 71.75C38.0007 69.6644 36.6792 66.9632 36.313 64.0625H31.1255C31.3113 66.7897 32.1735 69.4298 33.6363 71.75H27.8703C26.8037 68.4244 26.1547 64.982 25.938 61.5H20.7505C20.9178 64.9715 21.4967 68.4117 22.4753 71.75H15.563C15.6434 67.0452 16.3152 56.6518 20.2395 49.8329L39.7783 58.4173C40.717 63.233 42.7184 67.7852 45.6401 71.75H40.0739Z" fill="black"/>
</svg>
